<svg xmlns="http://www.w3.org/2000/svg" viewBox="0 0 800 500" fill="none">
  <!-- Background shapes -->
  <rect width="800" height="500" rx="24" fill="#1e252e"/>
  <circle cx="650" cy="120" r="180" fill="#2dd2eb" opacity="0.08"/>
  <circle cx="150" cy="400" r="120" fill="#f25746" opacity="0.06"/>
  
  <!-- Phone mockup -->
  <rect x="300" y="60" width="200" height="380" rx="24" fill="#252d38" stroke="#2dd2eb" stroke-width="2"/>
  <rect x="312" y="80" width="176" height="340" rx="16" fill="#2a3340"/>
  
  <!-- Screen content lines -->
  <rect x="332" y="110" width="80" height="8" rx="4" fill="#2dd2eb" opacity="0.6"/>
  <rect x="332" y="130" width="136" height="6" rx="3" fill="#ffffff" opacity="0.15"/>
  <rect x="332" y="145" width="100" height="6" rx="3" fill="#ffffff" opacity="0.1"/>
  
  <!-- Exercise cards on screen -->
  <rect x="332" y="170" width="136" height="50" rx="8" fill="#22b8cf" opacity="0.2"/>
  <rect x="345" y="183" width="60" height="6" rx="3" fill="#2dd2eb" opacity="0.7"/>
  <rect x="345" y="196" width="90" height="5" rx="2" fill="#ffffff" opacity="0.2"/>
  
  <rect x="332" y="230" width="136" height="50" rx="8" fill="#f25746" opacity="0.15"/>
  <rect x="345" y="243" width="70" height="6" rx="3" fill="#f25746" opacity="0.6"/>
  <rect x="345" y="256" width="80" height="5" rx="2" fill="#ffffff" opacity="0.2"/>
  
  <rect x="332" y="290" width="136" height="50" rx="8" fill="#22b8cf" opacity="0.15"/>
  <rect x="345" y="303" width="55" height="6" rx="3" fill="#2dd2eb" opacity="0.5"/>
  <rect x="345" y="316" width="100" height="5" rx="2" fill="#ffffff" opacity="0.2"/>
  
  <!-- Bottom nav -->
  <rect x="312" y="370" width="176" height="50" rx="0 0 16 16" fill="#1e252e"/>
  <circle cx="350" cy="395" r="8" fill="#2dd2eb" opacity="0.5"/>
  <circle cx="400" cy="395" r="8" fill="#ffffff" opacity="0.15"/>
  <circle cx="450" cy="395" r="8" fill="#ffffff" opacity="0.15"/>
  
  <!-- Floating elements -->
  <rect x="530" y="150" width="140" height="70" rx="12" fill="#252d38" stroke="#2dd2eb" stroke-width="1" opacity="0.8"/>
  <rect x="545" y="167" width="50" height="5" rx="2" fill="#2dd2eb" opacity="0.6"/>
  <rect x="545" y="180" width="110" height="4" rx="2" fill="#ffffff" opacity="0.2"/>
  <rect x="545" y="192" width="80" height="4" rx="2" fill="#ffffff" opacity="0.15"/>
  
  <rect x="130" y="170" width="140" height="70" rx="12" fill="#252d38" stroke="#f25746" stroke-width="1" opacity="0.8"/>
  <rect x="145" y="187" width="60" height="5" rx="2" fill="#f25746" opacity="0.6"/>
  <rect x="145" y="200" width="100" height="4" rx="2" fill="#ffffff" opacity="0.2"/>
  <rect x="145" y="212" width="70" height="4" rx="2" fill="#ffffff" opacity="0.15"/>
  
  <!-- VR glasses hint -->
  <ellipse cx="620" cy="330" rx="50" ry="25" fill="none" stroke="#2dd2eb" stroke-width="2" opacity="0.4"/>
  <rect x="585" y="318" width="28" height="24" rx="6" fill="none" stroke="#2dd2eb" stroke-width="1.5" opacity="0.4"/>
  <rect x="627" y="318" width="28" height="24" rx="6" fill="none" stroke="#2dd2eb" stroke-width="1.5" opacity="0.4"/>
</svg>
