<svg xmlns="http://www.w3.org/2000/svg" viewBox="0 0 400 280" fill="none">
  <rect width="400" height="280" rx="16" fill="#252d38"/>
  <!-- Sidebar -->
  <rect x="0" y="0" width="80" height="280" rx="16 0 0 16" fill="#1e252e"/>
  <circle cx="40" cy="30" r="12" fill="#2dd2eb" opacity="0.3"/>
  <rect x="24" y="60" width="32" height="4" rx="2" fill="#ffffff" opacity="0.2"/>
  <rect x="24" y="80" width="32" height="4" rx="2" fill="#2dd2eb" opacity="0.5"/>
  <rect x="24" y="100" width="32" height="4" rx="2" fill="#ffffff" opacity="0.2"/>
  <rect x="24" y="120" width="32" height="4" rx="2" fill="#ffffff" opacity="0.2"/>
  <rect x="24" y="140" width="32" height="4" rx="2" fill="#ffffff" opacity="0.2"/>
  
  <!-- Content area -->
  <rect x="96" y="16" width="140" height="8" rx="4" fill="#2dd2eb" opacity="0.6"/>
  <rect x="96" y="32" width="200" height="5" rx="2" fill="#ffffff" opacity="0.15"/>
  
  <!-- Cards -->
  <rect x="96" y="52" width="136" height="80" rx="10" fill="#2a3340"/>
  <rect x="110" y="66" width="60" height="6" rx="3" fill="#2dd2eb" opacity="0.5"/>
  <rect x="110" y="80" width="100" height="4" rx="2" fill="#ffffff" opacity="0.15"/>
  <rect x="110" y="92" width="80" height="4" rx="2" fill="#ffffff" opacity="0.1"/>
  <rect x="110" y="110" width="50" height="12" rx="6" fill="#2dd2eb" opacity="0.3"/>
  
  <rect x="248" y="52" width="136" height="80" rx="10" fill="#2a3340"/>
  <rect x="262" y="66" width="70" height="6" rx="3" fill="#f25746" opacity="0.5"/>
  <rect x="262" y="80" width="90" height="4" rx="2" fill="#ffffff" opacity="0.15"/>
  <rect x="262" y="92" width="100" height="4" rx="2" fill="#ffffff" opacity="0.1"/>
  <rect x="262" y="110" width="50" height="12" rx="6" fill="#f25746" opacity="0.3"/>
  
  <!-- Bottom section -->
  <rect x="96" y="148" width="288" height="110" rx="10" fill="#2a3340"/>
  <rect x="110" y="162" width="80" height="6" rx="3" fill="#22b8cf" opacity="0.5"/>
  <!-- Chart bars -->
  <rect x="120" y="210" width="20" height="30" rx="3" fill="#2dd2eb" opacity="0.4"/>
  <rect x="150" y="195" width="20" height="45" rx="3" fill="#2dd2eb" opacity="0.5"/>
  <rect x="180" y="220" width="20" height="20" rx="3" fill="#2dd2eb" opacity="0.3"/>
  <rect x="210" y="185" width="20" height="55" rx="3" fill="#2dd2eb" opacity="0.6"/>
  <rect x="240" y="200" width="20" height="40" rx="3" fill="#f25746" opacity="0.4"/>
  <rect x="270" y="190" width="20" height="50" rx="3" fill="#f25746" opacity="0.5"/>
  <rect x="300" y="210" width="20" height="30" rx="3" fill="#22b8cf" opacity="0.4"/>
  <rect x="330" y="175" width="20" height="65" rx="3" fill="#22b8cf" opacity="0.5"/>
</svg>
